<?xml version="1.0" encoding="UTF-8" standalone="no"?>
<!-- Created with Inkscape (http://www.inkscape.org/) -->

<svg
   width="1000"
   height="1000"
   viewBox="0 0 264.58334 264.58333"
   version="1.1"
   id="svg5"
   inkscape:version="1.2.2 (732a01da63, 2022-12-09)"
   sodipodi:docname="logo.svg"
   inkscape:export-filename="..\..\Dev\reading-app-with-nextjs\public\logo2.png"
   inkscape:export-xdpi="96"
   inkscape:export-ydpi="96"
   xmlns:inkscape="http://www.inkscape.org/namespaces/inkscape"
   xmlns:sodipodi="http://sodipodi.sourceforge.net/DTD/sodipodi-0.dtd"
   xmlns="http://www.w3.org/2000/svg"
   xmlns:svg="http://www.w3.org/2000/svg">
  <sodipodi:namedview
     id="namedview7"
     pagecolor="#505050"
     bordercolor="#ffffff"
     borderopacity="1"
     inkscape:showpageshadow="0"
     inkscape:pageopacity="0"
     inkscape:pagecheckerboard="1"
     inkscape:deskcolor="#505050"
     inkscape:document-units="mm"
     showgrid="false"
     inkscape:zoom="0.5"
     inkscape:cx="73"
     inkscape:cy="672"
     inkscape:window-width="2560"
     inkscape:window-height="1027"
     inkscape:window-x="1272"
     inkscape:window-y="22"
     inkscape:window-maximized="1"
     inkscape:current-layer="layer1" />
  <defs
     id="defs2">
    <inkscape:path-effect
       effect="powerstroke"
       id="path-effect709"
       is_visible="true"
       lpeversion="1"
       offset_points="0.70173119,0.43831168"
       not_jump="true"
       sort_points="true"
       interpolator_type="CentripetalCatmullRom"
       interpolator_beta="0.75"
       start_linecap_type="round"
       linejoin_type="spiro"
       miter_limit="4"
       scale_width="1"
       end_linecap_type="round" />
    <inkscape:path-effect
       effect="simplify"
       id="path-effect707"
       is_visible="true"
       lpeversion="1"
       steps="1"
       threshold="0.0047745358"
       smooth_angles="0"
       helper_size="0"
       simplify_individual_paths="false"
       simplify_just_coalesce="false"
       step="1" />
    <inkscape:path-effect
       effect="powerstroke"
       id="path-effect702"
       is_visible="true"
       lpeversion="1"
       offset_points="0.84903345,0.43831168"
       not_jump="true"
       sort_points="true"
       interpolator_type="CentripetalCatmullRom"
       interpolator_beta="0.75"
       start_linecap_type="round"
       linejoin_type="spiro"
       miter_limit="4"
       scale_width="1"
       end_linecap_type="round" />
    <inkscape:path-effect
       effect="simplify"
       id="path-effect700"
       is_visible="true"
       lpeversion="1"
       steps="1"
       threshold="0.0047745358"
       smooth_angles="0"
       helper_size="0"
       simplify_individual_paths="false"
       simplify_just_coalesce="false"
       step="1" />
    <inkscape:path-effect
       effect="powerstroke"
       id="path-effect693"
       is_visible="true"
       lpeversion="1"
       offset_points="2.1173755,0.43831168"
       not_jump="true"
       sort_points="true"
       interpolator_type="CentripetalCatmullRom"
       interpolator_beta="0.75"
       start_linecap_type="round"
       linejoin_type="spiro"
       miter_limit="4"
       scale_width="1"
       end_linecap_type="round" />
    <inkscape:path-effect
       effect="simplify"
       id="path-effect691"
       is_visible="true"
       lpeversion="1"
       steps="1"
       threshold="0.0047745358"
       smooth_angles="0"
       helper_size="0"
       simplify_individual_paths="false"
       simplify_just_coalesce="false"
       step="1" />
  </defs>
  <g
     inkscape:label="Camada 1"
     inkscape:groupmode="layer"
     id="layer1">
    <path
       id="path1466"
       style="fill:#020202;fill-opacity:0.84511787;stroke:none;stroke-width:3.79943;stroke-linecap:round;stroke-linejoin:round;stroke-dasharray:none"
       d="M 134.80591,0.26249769 C 60.528351,0.26249769 0.31421717,59.46625 0.31421717,132.4975 c 0,73.0312 60.21415383,132.23496 134.49169283,132.23496 53.62233,-0.0384 102.09719,-31.39442 123.36246,-79.79392 -17.19686,3.49564 -29.15165,7.74889 -45.74965,5.36301 0,0 33.85553,-10.29405 41.18911,-28.98522 -19.11769,-2.02553 -27.40018,-5.60115 -34.44819,-7.73617 11.34975,-5.32971 28.3172,-24.90034 34.2414,-34.56795 -19.15935,4.20009 -32.42241,2.75737 -40.4401,-1.1976 l 18.3689,-28.781178 -44.92166,9.702186 -2.34194,-29.76741 c 0,0 -0.0292,-0.03841 -0.21473,-0.03073 -22.04749,13.693641 -63.14084,24.603244 -83.65797,46.373042 -10.513082,12.49525 -24.185297,11.18875 -38.556138,19.7564 -3.294295,1.74303 -14.126925,9.93286 -4.683868,17.14609 2.369591,1.81004 4.096479,6.51868 5.171061,9.33914 9.328579,-5.42061 20.927222,-8.62273 32.159541,-10.68933 1.753861,-6.9872 2.068659,-7.75272 2.068659,-7.75272 l 3.732535,5.5018 c 5.00065,-1.9471 9.69852,-3.75253 13.90602,-5.14427 l -13.06298,9.8419 -3.161014,6.54869 -2.42445,-4.43475 c -14.721839,9.13254 -31.420327,10.21415 -31.420327,10.21415 0,0 4.326538,10.28792 8.907132,9.90438 5.869192,-0.4273 19.81809,-2.85299 31.756669,-0.90435 8.69693,1.41961 16.25677,8.23417 19.19598,4.74629 2.61721,-23.28351 28.65378,-26.28896 48.21581,-26.31885 -36.87049,2.64904 -48.81506,26.54877 -49.92589,45.4824 C 10.671293,252.77769 -9.8603503,120.43827 76.262277,108.69939 70.605157,78.224599 104.32564,68.705254 118.50571,77.843751 130.58837,37.19508 203.47086,54.157985 236.98815,77.633266 c 9.2556,7.002073 18.53773,13.983863 27.80859,20.970551 C 249.16197,40.632888 195.80423,0.26618503 134.80591,0.26249769 Z M 178.81708,79.724637 c 0.68163,5.114656 1.48398,19.645928 -1.5788,23.577133 -1.24311,5.09511 -13.61422,11.68636 -13.30166,-4.871316 z m -20.67356,54.941043 c -10.67936,-30.2317 -36.49465,-17.68736 -36.93146,-22.07093 29.8504,-9.47143 36.20045,6.35379 36.93146,22.07093 z m -39.92367,-18.07716 c 0.24232,0.57326 1.69558,4.39118 4.68385,6.75272 l 0.0122,0.0366 c 1.34799,-2.32914 3.55322,-4.11721 6.25728,-4.86212 l -8.6e-4,-0.004 c 0.0209,-0.003 0.0418,-0.008 0.0627,-0.0111 v -8.6e-4 c 1.24208,-0.25581 2.46382,-0.37814 3.65799,-0.3741 7.29776,0.025 13.56249,4.76688 17.11142,12.58177 -1.99052,-1.7267 -4.74346,-2.94107 -7.69756,-2.82261 -0.0564,6.38075 -6.19903,11.29223 -10.39893,11.42185 -13.82994,-1.22948 -15.38788,-16.84808 -13.68695,-22.71784 z m 43.07914,50.04469 c 15.89994,-1.02552 -17.55473,1.92683 -27.6949,20.93912 6.02393,-16.42568 9.96467,-20.89826 27.6949,-20.93912 z"
       sodipodi:nodetypes="cscccccccccccccsccccccccccsccccccccccccccccccccccscccccccc"
       inkscape:export-filename="..\..\Dev\reading-app-with-nextjs\public\logo2.png"
       inkscape:export-xdpi="96"
       inkscape:export-ydpi="96" />
  </g>
</svg>
